<?xml version="1.0" encoding="UTF-8" standalone="no"?>
<svg
   height="25"
   viewBox="0 0 25 25"
   width="25"
   version="1.1"
   id="svg27"
   sodipodi:docname="LinkedIn_icon_circle.svg"
   inkscape:version="1.1.1 (3bf5ae0d25, 2021-09-20)"
   xmlns:inkscape="http://www.inkscape.org/namespaces/inkscape"
   xmlns:sodipodi="http://sodipodi.sourceforge.net/DTD/sodipodi-0.dtd"
   xmlns="http://www.w3.org/2000/svg"
   xmlns:svg="http://www.w3.org/2000/svg">
  <defs
     id="defs31" />
  <sodipodi:namedview
     id="namedview29"
     pagecolor="#ffffff"
     bordercolor="#666666"
     borderopacity="1.0"
     inkscape:pageshadow="2"
     inkscape:pageopacity="0.0"
     inkscape:pagecheckerboard="0"
     showgrid="false"
     inkscape:zoom="30.759145"
     inkscape:cx="0.66646846"
     inkscape:cy="10.679751"
     inkscape:window-width="2400"
     inkscape:window-height="1271"
     inkscape:window-x="-9"
     inkscape:window-y="-9"
     inkscape:window-maximized="1"
     inkscape:current-layer="g25"
     units="px"
     width="19.05mm" />
  <g
     fill="none"
     fill-rule="evenodd"
     id="g25">
    <path
       d="m 12.5,25 v 0 C 19.40356,25 25,19.40356 25,12.5 v 0 C 25,5.5964407 19.40356,0 12.5,0 V 0 C 5.5964407,0 0,5.5964407 0,12.5 v 0 C 0,19.40356 5.5964407,25 12.5,25 Z"
       fill="#007EBB"
       id="path21"
       style="fill:#219653;fill-opacity:1;stroke-width:0.347222" />
    <path
       d="m 20.486111,19.791667 h -3.139106 v -3.316571 -2.03003 c 0,-1.465891 -0.557002,-2.28508 -1.717258,-2.28508 -1.262207,0 -1.921658,0.852493 -1.921658,2.28508 v 5.346601 H 10.68287 V 9.6064817 h 3.025219 v 1.3719423 c 0,0 0.909605,-1.6831148 3.070973,-1.6831148 2.160373,0 3.707049,1.3192528 3.707049,4.0477288 z M 7.0737938,8.272814 c -1.0304542,0 -1.8654604,-0.841558 -1.8654604,-1.8794626 0,-1.0379048 0.8350062,-1.8794625 1.8654604,-1.8794625 1.0304542,0 1.8649632,0.8415577 1.8649632,1.8794625 0,1.0379046 -0.834509,1.8794626 -1.8649632,1.8794626 z M 5.5117007,19.791667 h 3.154523 V 9.6064817 h -3.154523 z"
       fill="#ffffff"
       id="path23"
       sodipodi:nodetypes="cccssscccccsscsssssccccc"
       style="stroke-width:0.347222" />
  </g>
</svg>
