<?xml version="1.0" encoding="UTF-8" standalone="no"?>
<svg
   height="297mm"
   viewBox="0 0 793.70079 1122.5196"
   width="210mm"
   version="1.1"
   id="svg27"
   sodipodi:docname="LinkedIn_icon_circle.svg"
   inkscape:version="1.1.1 (3bf5ae0d25, 2021-09-20)"
   xmlns:inkscape="http://www.inkscape.org/namespaces/inkscape"
   xmlns:sodipodi="http://sodipodi.sourceforge.net/DTD/sodipodi-0.dtd"
   xmlns="http://www.w3.org/2000/svg"
   xmlns:svg="http://www.w3.org/2000/svg">
  <defs
     id="defs31" />
  <sodipodi:namedview
     id="namedview29"
     pagecolor="#ffffff"
     bordercolor="#666666"
     borderopacity="1.0"
     inkscape:pageshadow="2"
     inkscape:pageopacity="0.0"
     inkscape:pagecheckerboard="0"
     showgrid="false"
     inkscape:zoom="10.875"
     inkscape:cx="6.8505747"
     inkscape:cy="36"
     inkscape:window-width="1920"
     inkscape:window-height="1001"
     inkscape:window-x="2391"
     inkscape:window-y="-9"
     inkscape:window-maximized="1"
     inkscape:current-layer="g25"
     units="mm"
     inkscape:document-units="mm" />
  <g
     fill="none"
     fill-rule="evenodd"
     id="g25">
    <path
       d="m 36,72 v 0 C 55.882251,72 72,55.882251 72,36 v 0 C 72,16.117749 55.882251,0 36,0 V 0 C 16.117749,0 0,16.117749 0,36 v 0 c 0,19.882251 16.117749,36 36,36 z"
       fill="#007EBB"
       id="path21"
       style="fill:#219653;fill-opacity:1" />
    <path
       d="M 59,57 H 49.959375 V 41.60179 c 0,-4.221767 -1.604167,-6.581032 -4.945703,-6.581032 -3.635156,0 -5.534375,2.455182 -5.534375,6.581032 V 57 h -8.71263 V 27.666667 h 8.71263 v 3.951195 c 0,0 2.619661,-4.847372 8.844401,-4.847372 C 54.545573,26.77049 59,30.569937 59,38.427949 Z M 20.372526,23.825704 C 17.404818,23.825704 15,21.402017 15,18.412852 15,15.423686 17.404818,13 20.372526,13 c 2.967708,0 5.371094,2.423686 5.371094,5.412852 0,2.989165 -2.403386,5.412852 -5.371094,5.412852 z M 15.873698,57 h 9.085026 V 27.666667 h -9.085026 z"
       fill="#ffffff"
       id="path23" />
  </g>
</svg>
